<mxfile host="Electron" modified="2023-12-28T06:36:05.215Z" agent="Mozilla/5.0 (Windows NT 10.0; Win64; x64) AppleWebKit/537.36 (KHTML, like Gecko) draw.io/21.2.8 Chrome/112.0.5615.165 Electron/24.2.0 Safari/537.36" etag="YtJi78tIRzgB-vUX6e83" version="21.2.8" type="device">
  <diagram name="Page-1" id="UcSlUft3GAuf-4zFbCCS">
    <mxGraphModel dx="996" dy="666" grid="1" gridSize="10" guides="1" tooltips="1" connect="0" arrows="1" fold="1" page="1" pageScale="1" pageWidth="827" pageHeight="1169" math="0" shadow="0">
      <root>
        <mxCell id="0" />
        <mxCell id="1" parent="0" />
        <mxCell id="Zd-3lMhIXrU8nzPOGtwx-19" value="&lt;font size=&quot;1&quot; face=&quot;Verdana&quot; color=&quot;#ffffff&quot;&gt;&lt;b style=&quot;font-size: 16px;&quot;&gt;7&lt;/b&gt;&lt;/font&gt;" style="ellipse;whiteSpace=wrap;html=1;aspect=fixed;fillColor=#131111;" parent="1" vertex="1">
          <mxGeometry x="208" y="292" width="50" height="50" as="geometry" />
        </mxCell>
        <mxCell id="Zd-3lMhIXrU8nzPOGtwx-20" value="&lt;font size=&quot;1&quot; face=&quot;Verdana&quot; color=&quot;#ffffff&quot;&gt;&lt;b style=&quot;font-size: 16px;&quot;&gt;5&lt;/b&gt;&lt;/font&gt;" style="ellipse;whiteSpace=wrap;html=1;aspect=fixed;fillColor=#e51400;fontColor=#ffffff;strokeColor=#B20000;" parent="1" vertex="1">
          <mxGeometry x="132" y="362" width="50" height="50" as="geometry" />
        </mxCell>
        <mxCell id="Zd-3lMhIXrU8nzPOGtwx-21" value="" style="endArrow=classic;html=1;rounded=0;exitX=0.056;exitY=0.86;exitDx=0;exitDy=0;exitPerimeter=0;" parent="1" source="Zd-3lMhIXrU8nzPOGtwx-19" edge="1">
          <mxGeometry width="50" height="50" relative="1" as="geometry">
            <mxPoint x="141" y="421" as="sourcePoint" />
            <mxPoint x="175" y="368" as="targetPoint" />
          </mxGeometry>
        </mxCell>
        <mxCell id="Zd-3lMhIXrU8nzPOGtwx-22" value="&lt;font size=&quot;1&quot; face=&quot;Verdana&quot; color=&quot;#ffffff&quot;&gt;&lt;b style=&quot;font-size: 16px;&quot;&gt;6&lt;/b&gt;&lt;/font&gt;" style="ellipse;whiteSpace=wrap;html=1;aspect=fixed;fillColor=#e51400;fontColor=#ffffff;strokeColor=#B20000;" parent="1" vertex="1">
          <mxGeometry x="208" y="442" width="50" height="50" as="geometry" />
        </mxCell>
        <mxCell id="Zd-3lMhIXrU8nzPOGtwx-23" value="" style="endArrow=classic;html=1;rounded=0;exitX=0.776;exitY=0.964;exitDx=0;exitDy=0;exitPerimeter=0;entryX=0.208;entryY=0.068;entryDx=0;entryDy=0;entryPerimeter=0;" parent="1" target="Zd-3lMhIXrU8nzPOGtwx-22" edge="1">
          <mxGeometry width="50" height="50" relative="1" as="geometry">
            <mxPoint x="170.79999999999995" y="409.20000000000005" as="sourcePoint" />
            <mxPoint x="195.79999999999995" y="387.20000000000005" as="targetPoint" />
          </mxGeometry>
        </mxCell>
        <mxCell id="Zd-3lMhIXrU8nzPOGtwx-27" value="&lt;font size=&quot;1&quot; face=&quot;Verdana&quot; color=&quot;#ffffff&quot;&gt;&lt;b style=&quot;font-size: 16px;&quot;&gt;7&lt;/b&gt;&lt;/font&gt;" style="ellipse;whiteSpace=wrap;html=1;aspect=fixed;fillColor=#131111;" parent="1" vertex="1">
          <mxGeometry x="132" y="552" width="50" height="50" as="geometry" />
        </mxCell>
        <mxCell id="Zd-3lMhIXrU8nzPOGtwx-28" value="&lt;font size=&quot;1&quot; face=&quot;Verdana&quot; color=&quot;#ffffff&quot;&gt;&lt;b style=&quot;font-size: 16px;&quot;&gt;9&lt;/b&gt;&lt;/font&gt;" style="ellipse;whiteSpace=wrap;html=1;aspect=fixed;fillColor=#e51400;fontColor=#ffffff;strokeColor=#B20000;" parent="1" vertex="1">
          <mxGeometry x="214" y="622" width="50" height="50" as="geometry" />
        </mxCell>
        <mxCell id="Zd-3lMhIXrU8nzPOGtwx-29" value="" style="endArrow=classic;html=1;rounded=0;exitX=0.952;exitY=0.636;exitDx=0;exitDy=0;exitPerimeter=0;" parent="1" source="Zd-3lMhIXrU8nzPOGtwx-27" target="Zd-3lMhIXrU8nzPOGtwx-28" edge="1">
          <mxGeometry width="50" height="50" relative="1" as="geometry">
            <mxPoint x="65" y="681" as="sourcePoint" />
            <mxPoint x="99" y="628" as="targetPoint" />
          </mxGeometry>
        </mxCell>
        <mxCell id="Zd-3lMhIXrU8nzPOGtwx-30" value="&lt;font size=&quot;1&quot; face=&quot;Verdana&quot; color=&quot;#ffffff&quot;&gt;&lt;b style=&quot;font-size: 16px;&quot;&gt;8&lt;/b&gt;&lt;/font&gt;" style="ellipse;whiteSpace=wrap;html=1;aspect=fixed;fillColor=#e51400;fontColor=#ffffff;strokeColor=#B20000;" parent="1" vertex="1">
          <mxGeometry x="132" y="702" width="50" height="50" as="geometry" />
        </mxCell>
        <mxCell id="Zd-3lMhIXrU8nzPOGtwx-31" value="" style="endArrow=classic;html=1;rounded=0;exitX=0.224;exitY=0.932;exitDx=0;exitDy=0;exitPerimeter=0;entryX=0.88;entryY=0.148;entryDx=0;entryDy=0;entryPerimeter=0;" parent="1" source="Zd-3lMhIXrU8nzPOGtwx-28" target="Zd-3lMhIXrU8nzPOGtwx-30" edge="1">
          <mxGeometry width="50" height="50" relative="1" as="geometry">
            <mxPoint x="94.79999999999995" y="669.2" as="sourcePoint" />
            <mxPoint x="119.79999999999995" y="647.2" as="targetPoint" />
          </mxGeometry>
        </mxCell>
        <mxCell id="clMs-8nxmc0jHzL0fdGQ-2" value="" style="endArrow=classic;html=1;rounded=0;dashed=1;strokeWidth=2;" parent="1" edge="1">
          <mxGeometry width="50" height="50" relative="1" as="geometry">
            <mxPoint x="303" y="390" as="sourcePoint" />
            <mxPoint x="403" y="390" as="targetPoint" />
          </mxGeometry>
        </mxCell>
        <mxCell id="clMs-8nxmc0jHzL0fdGQ-4" value="&lt;font style=&quot;font-size: 16px;&quot;&gt;父节点左旋&lt;/font&gt;" style="text;html=1;align=center;verticalAlign=middle;resizable=0;points=[];autosize=1;strokeColor=none;fillColor=none;" parent="1" vertex="1">
          <mxGeometry x="302" y="361" width="100" height="30" as="geometry" />
        </mxCell>
        <mxCell id="clMs-8nxmc0jHzL0fdGQ-5" value="" style="endArrow=classic;html=1;rounded=0;dashed=1;strokeWidth=2;" parent="1" edge="1">
          <mxGeometry width="50" height="50" relative="1" as="geometry">
            <mxPoint x="299" y="650" as="sourcePoint" />
            <mxPoint x="399" y="650" as="targetPoint" />
          </mxGeometry>
        </mxCell>
        <mxCell id="clMs-8nxmc0jHzL0fdGQ-6" value="&lt;font style=&quot;font-size: 16px;&quot;&gt;父节点右旋&lt;/font&gt;" style="text;html=1;align=center;verticalAlign=middle;resizable=0;points=[];autosize=1;strokeColor=none;fillColor=none;" parent="1" vertex="1">
          <mxGeometry x="298" y="621" width="100" height="30" as="geometry" />
        </mxCell>
        <mxCell id="clMs-8nxmc0jHzL0fdGQ-7" value="&lt;font size=&quot;1&quot; face=&quot;Verdana&quot; color=&quot;#ffffff&quot;&gt;&lt;b style=&quot;font-size: 16px;&quot;&gt;7&lt;/b&gt;&lt;/font&gt;" style="ellipse;whiteSpace=wrap;html=1;aspect=fixed;fillColor=#131111;" parent="1" vertex="1">
          <mxGeometry x="588" y="292" width="50" height="50" as="geometry" />
        </mxCell>
        <mxCell id="clMs-8nxmc0jHzL0fdGQ-8" value="&lt;font size=&quot;1&quot; face=&quot;Verdana&quot; color=&quot;#ffffff&quot;&gt;&lt;b style=&quot;font-size: 16px;&quot;&gt;6&lt;/b&gt;&lt;/font&gt;" style="ellipse;whiteSpace=wrap;html=1;aspect=fixed;fillColor=#e51400;fontColor=#ffffff;strokeColor=#B20000;" parent="1" vertex="1">
          <mxGeometry x="512" y="362" width="50" height="50" as="geometry" />
        </mxCell>
        <mxCell id="clMs-8nxmc0jHzL0fdGQ-9" value="" style="endArrow=classic;html=1;rounded=0;exitX=0.056;exitY=0.86;exitDx=0;exitDy=0;exitPerimeter=0;" parent="1" source="clMs-8nxmc0jHzL0fdGQ-7" edge="1">
          <mxGeometry width="50" height="50" relative="1" as="geometry">
            <mxPoint x="521" y="421" as="sourcePoint" />
            <mxPoint x="555" y="368" as="targetPoint" />
          </mxGeometry>
        </mxCell>
        <mxCell id="clMs-8nxmc0jHzL0fdGQ-10" value="&lt;font size=&quot;1&quot; face=&quot;Verdana&quot; color=&quot;#ffffff&quot;&gt;&lt;b style=&quot;font-size: 16px;&quot;&gt;5&lt;/b&gt;&lt;/font&gt;" style="ellipse;whiteSpace=wrap;html=1;aspect=fixed;fillColor=#e51400;fontColor=#ffffff;strokeColor=#B20000;" parent="1" vertex="1">
          <mxGeometry x="440" y="442" width="50" height="50" as="geometry" />
        </mxCell>
        <mxCell id="clMs-8nxmc0jHzL0fdGQ-12" value="" style="endArrow=classic;html=1;rounded=0;exitX=0.144;exitY=0.852;exitDx=0;exitDy=0;exitPerimeter=0;" parent="1" source="clMs-8nxmc0jHzL0fdGQ-8" target="clMs-8nxmc0jHzL0fdGQ-10" edge="1">
          <mxGeometry width="50" height="50" relative="1" as="geometry">
            <mxPoint x="601" y="345" as="sourcePoint" />
            <mxPoint x="565" y="378" as="targetPoint" />
          </mxGeometry>
        </mxCell>
        <mxCell id="clMs-8nxmc0jHzL0fdGQ-13" value="&lt;font size=&quot;1&quot; face=&quot;Verdana&quot; color=&quot;#ffffff&quot;&gt;&lt;b style=&quot;font-size: 16px;&quot;&gt;7&lt;/b&gt;&lt;/font&gt;" style="ellipse;whiteSpace=wrap;html=1;aspect=fixed;fillColor=#131111;" parent="1" vertex="1">
          <mxGeometry x="442" y="552" width="50" height="50" as="geometry" />
        </mxCell>
        <mxCell id="clMs-8nxmc0jHzL0fdGQ-14" value="&lt;font size=&quot;1&quot; face=&quot;Verdana&quot; color=&quot;#ffffff&quot;&gt;&lt;b style=&quot;font-size: 16px;&quot;&gt;8&lt;/b&gt;&lt;/font&gt;" style="ellipse;whiteSpace=wrap;html=1;aspect=fixed;fillColor=#e51400;fontColor=#ffffff;strokeColor=#B20000;" parent="1" vertex="1">
          <mxGeometry x="520" y="622" width="50" height="50" as="geometry" />
        </mxCell>
        <mxCell id="clMs-8nxmc0jHzL0fdGQ-15" value="" style="endArrow=classic;html=1;rounded=0;exitX=0.904;exitY=0.796;exitDx=0;exitDy=0;exitPerimeter=0;" parent="1" source="clMs-8nxmc0jHzL0fdGQ-13" target="clMs-8nxmc0jHzL0fdGQ-14" edge="1">
          <mxGeometry width="50" height="50" relative="1" as="geometry">
            <mxPoint x="375" y="681" as="sourcePoint" />
            <mxPoint x="409" y="628" as="targetPoint" />
          </mxGeometry>
        </mxCell>
        <mxCell id="clMs-8nxmc0jHzL0fdGQ-16" value="&lt;font size=&quot;1&quot; face=&quot;Verdana&quot; color=&quot;#ffffff&quot;&gt;&lt;b style=&quot;font-size: 16px;&quot;&gt;9&lt;/b&gt;&lt;/font&gt;" style="ellipse;whiteSpace=wrap;html=1;aspect=fixed;fillColor=#e51400;fontColor=#ffffff;strokeColor=#B20000;" parent="1" vertex="1">
          <mxGeometry x="588" y="702" width="50" height="50" as="geometry" />
        </mxCell>
        <mxCell id="clMs-8nxmc0jHzL0fdGQ-17" value="" style="endArrow=classic;html=1;rounded=0;exitX=0.8;exitY=0.868;exitDx=0;exitDy=0;exitPerimeter=0;" parent="1" source="clMs-8nxmc0jHzL0fdGQ-14" target="clMs-8nxmc0jHzL0fdGQ-16" edge="1">
          <mxGeometry width="50" height="50" relative="1" as="geometry">
            <mxPoint x="404.79999999999995" y="669.2" as="sourcePoint" />
            <mxPoint x="429.79999999999995" y="647.2" as="targetPoint" />
          </mxGeometry>
        </mxCell>
        <mxCell id="clMs-8nxmc0jHzL0fdGQ-18" value="" style="endArrow=classic;html=1;rounded=0;dashed=1;strokeWidth=2;" parent="1" edge="1">
          <mxGeometry width="50" height="50" relative="1" as="geometry">
            <mxPoint x="673" y="390" as="sourcePoint" />
            <mxPoint x="773" y="390" as="targetPoint" />
          </mxGeometry>
        </mxCell>
        <mxCell id="clMs-8nxmc0jHzL0fdGQ-19" value="&lt;font style=&quot;font-size: 16px;&quot;&gt;祖父节点右旋&lt;/font&gt;" style="text;html=1;align=center;verticalAlign=middle;resizable=0;points=[];autosize=1;strokeColor=none;fillColor=none;" parent="1" vertex="1">
          <mxGeometry x="662" y="361" width="120" height="30" as="geometry" />
        </mxCell>
        <mxCell id="clMs-8nxmc0jHzL0fdGQ-20" value="&lt;font size=&quot;1&quot; face=&quot;Verdana&quot; color=&quot;#ffffff&quot;&gt;&lt;b style=&quot;font-size: 16px;&quot;&gt;7&lt;/b&gt;&lt;/font&gt;" style="ellipse;whiteSpace=wrap;html=1;aspect=fixed;fillColor=#e51400;fontColor=#ffffff;strokeColor=#B20000;" parent="1" vertex="1">
          <mxGeometry x="960" y="407" width="50" height="50" as="geometry" />
        </mxCell>
        <mxCell id="clMs-8nxmc0jHzL0fdGQ-21" value="&lt;font size=&quot;1&quot; face=&quot;Verdana&quot; color=&quot;#ffffff&quot;&gt;&lt;b style=&quot;font-size: 16px;&quot;&gt;6&lt;/b&gt;&lt;/font&gt;" style="ellipse;whiteSpace=wrap;html=1;aspect=fixed;fillColor=#000000;fontColor=#ffffff;strokeColor=#000000;" parent="1" vertex="1">
          <mxGeometry x="882" y="327" width="50" height="50" as="geometry" />
        </mxCell>
        <mxCell id="clMs-8nxmc0jHzL0fdGQ-22" value="" style="endArrow=classic;html=1;rounded=0;exitX=0.936;exitY=0.868;exitDx=0;exitDy=0;exitPerimeter=0;entryX=0.008;entryY=0.244;entryDx=0;entryDy=0;entryPerimeter=0;" parent="1" source="clMs-8nxmc0jHzL0fdGQ-21" target="clMs-8nxmc0jHzL0fdGQ-20" edge="1">
          <mxGeometry width="50" height="50" relative="1" as="geometry">
            <mxPoint x="891" y="386" as="sourcePoint" />
            <mxPoint x="925" y="333" as="targetPoint" />
          </mxGeometry>
        </mxCell>
        <mxCell id="clMs-8nxmc0jHzL0fdGQ-23" value="&lt;font size=&quot;1&quot; face=&quot;Verdana&quot; color=&quot;#ffffff&quot;&gt;&lt;b style=&quot;font-size: 16px;&quot;&gt;5&lt;/b&gt;&lt;/font&gt;" style="ellipse;whiteSpace=wrap;html=1;aspect=fixed;fillColor=#e51400;fontColor=#ffffff;strokeColor=#B20000;" parent="1" vertex="1">
          <mxGeometry x="810" y="407" width="50" height="50" as="geometry" />
        </mxCell>
        <mxCell id="clMs-8nxmc0jHzL0fdGQ-24" value="" style="endArrow=classic;html=1;rounded=0;exitX=0.144;exitY=0.852;exitDx=0;exitDy=0;exitPerimeter=0;" parent="1" source="clMs-8nxmc0jHzL0fdGQ-21" target="clMs-8nxmc0jHzL0fdGQ-23" edge="1">
          <mxGeometry width="50" height="50" relative="1" as="geometry">
            <mxPoint x="971" y="310" as="sourcePoint" />
            <mxPoint x="935" y="343" as="targetPoint" />
          </mxGeometry>
        </mxCell>
        <mxCell id="clMs-8nxmc0jHzL0fdGQ-25" value="&lt;font style=&quot;font-size: 16px;&quot;&gt;变色&lt;/font&gt;" style="text;html=1;align=center;verticalAlign=middle;resizable=0;points=[];autosize=1;strokeColor=none;fillColor=none;" parent="1" vertex="1">
          <mxGeometry x="692" y="391" width="60" height="30" as="geometry" />
        </mxCell>
        <mxCell id="clMs-8nxmc0jHzL0fdGQ-26" value="" style="endArrow=classic;html=1;rounded=0;dashed=1;strokeWidth=2;" parent="1" edge="1">
          <mxGeometry width="50" height="50" relative="1" as="geometry">
            <mxPoint x="683" y="650" as="sourcePoint" />
            <mxPoint x="783" y="650" as="targetPoint" />
          </mxGeometry>
        </mxCell>
        <mxCell id="clMs-8nxmc0jHzL0fdGQ-27" value="&lt;font style=&quot;font-size: 16px;&quot;&gt;祖父节点右旋&lt;/font&gt;" style="text;html=1;align=center;verticalAlign=middle;resizable=0;points=[];autosize=1;strokeColor=none;fillColor=none;" parent="1" vertex="1">
          <mxGeometry x="672" y="621" width="120" height="30" as="geometry" />
        </mxCell>
        <mxCell id="clMs-8nxmc0jHzL0fdGQ-28" value="&lt;font size=&quot;1&quot; face=&quot;Verdana&quot; color=&quot;#ffffff&quot;&gt;&lt;b style=&quot;font-size: 16px;&quot;&gt;9&lt;/b&gt;&lt;/font&gt;" style="ellipse;whiteSpace=wrap;html=1;aspect=fixed;fillColor=#e51400;fontColor=#ffffff;strokeColor=#B20000;" parent="1" vertex="1">
          <mxGeometry x="970" y="667" width="50" height="50" as="geometry" />
        </mxCell>
        <mxCell id="clMs-8nxmc0jHzL0fdGQ-29" value="&lt;font face=&quot;Verdana&quot;&gt;&lt;span style=&quot;font-size: 16px;&quot;&gt;&lt;b&gt;8&lt;/b&gt;&lt;/span&gt;&lt;/font&gt;" style="ellipse;whiteSpace=wrap;html=1;aspect=fixed;fillColor=#000000;fontColor=#ffffff;strokeColor=#000000;" parent="1" vertex="1">
          <mxGeometry x="892" y="587" width="50" height="50" as="geometry" />
        </mxCell>
        <mxCell id="clMs-8nxmc0jHzL0fdGQ-30" value="" style="endArrow=classic;html=1;rounded=0;exitX=0.936;exitY=0.868;exitDx=0;exitDy=0;exitPerimeter=0;entryX=0.008;entryY=0.244;entryDx=0;entryDy=0;entryPerimeter=0;" parent="1" source="clMs-8nxmc0jHzL0fdGQ-29" target="clMs-8nxmc0jHzL0fdGQ-28" edge="1">
          <mxGeometry width="50" height="50" relative="1" as="geometry">
            <mxPoint x="901" y="646" as="sourcePoint" />
            <mxPoint x="935" y="593" as="targetPoint" />
          </mxGeometry>
        </mxCell>
        <mxCell id="clMs-8nxmc0jHzL0fdGQ-31" value="&lt;font size=&quot;1&quot; face=&quot;Verdana&quot; color=&quot;#ffffff&quot;&gt;&lt;b style=&quot;font-size: 16px;&quot;&gt;7&lt;/b&gt;&lt;/font&gt;" style="ellipse;whiteSpace=wrap;html=1;aspect=fixed;fillColor=#e51400;fontColor=#ffffff;strokeColor=#B20000;" parent="1" vertex="1">
          <mxGeometry x="820" y="667" width="50" height="50" as="geometry" />
        </mxCell>
        <mxCell id="clMs-8nxmc0jHzL0fdGQ-32" value="" style="endArrow=classic;html=1;rounded=0;exitX=0.144;exitY=0.852;exitDx=0;exitDy=0;exitPerimeter=0;" parent="1" source="clMs-8nxmc0jHzL0fdGQ-29" target="clMs-8nxmc0jHzL0fdGQ-31" edge="1">
          <mxGeometry width="50" height="50" relative="1" as="geometry">
            <mxPoint x="981" y="570" as="sourcePoint" />
            <mxPoint x="945" y="603" as="targetPoint" />
          </mxGeometry>
        </mxCell>
        <mxCell id="clMs-8nxmc0jHzL0fdGQ-33" value="&lt;font style=&quot;font-size: 16px;&quot;&gt;变色&lt;/font&gt;" style="text;html=1;align=center;verticalAlign=middle;resizable=0;points=[];autosize=1;strokeColor=none;fillColor=none;" parent="1" vertex="1">
          <mxGeometry x="702" y="651" width="60" height="30" as="geometry" />
        </mxCell>
      </root>
    </mxGraphModel>
  </diagram>
</mxfile>
